<svg width="518" height="101" viewBox="0 0 518 101" fill="none" xmlns="http://www.w3.org/2000/svg">
<path fill-rule="evenodd" clip-rule="evenodd" d="M482.431 3H260L485.169 5.9758L513.973 37.2817H513.926L508.142 48.5217L518 37.2817H517.977L486.325 3H485H482.431Z" fill="#FD3A4C"/>
<path fill-rule="evenodd" clip-rule="evenodd" d="M35.5689 98L258 98L32.831 95.0242L4.02693 63.7182L4.0744 63.7182L9.85764 52.4783L2.99701e-06 63.7182L0.0227081 63.7182L31.6752 98L33 98L35.5689 98Z" fill="#FD3A4C"/>
<path d="M80.187 73.512C76.3897 73.512 73.2963 73.2133 70.907 72.616C68.5177 71.976 66.747 70.888 65.595 69.352C64.4857 67.7733 63.931 65.6187 63.931 62.888C63.931 61.352 64.059 59.6027 64.315 57.64C64.6137 55.6773 65.0403 53.4587 65.595 50.984C66.4483 47.1867 67.2803 43.9653 68.091 41.32C68.9443 38.6747 69.883 36.52 70.907 34.856C71.9737 33.1493 73.275 31.848 74.811 30.952C76.347 30.0133 78.2457 29.3733 80.507 29.032C82.7683 28.648 85.5417 28.456 88.827 28.456C90.1497 28.456 91.5363 28.4987 92.987 28.584C94.4803 28.6693 95.8883 28.7973 97.211 28.968C98.5763 29.1387 99.7283 29.3307 100.667 29.544L98.939 37.416C97.531 37.288 96.2723 37.1813 95.163 37.096C94.0537 37.0107 93.0937 36.9467 92.283 36.904C91.515 36.8613 90.8537 36.84 90.299 36.84C88.2937 36.84 86.6297 36.9253 85.307 37.096C83.9843 37.224 82.8963 37.544 82.043 38.056C81.1897 38.5253 80.4643 39.272 79.867 40.296C79.3123 41.2773 78.8003 42.6427 78.331 44.392C77.8617 46.1413 77.371 48.3387 76.859 50.984C76.3897 53.16 76.0057 55.0373 75.707 56.616C75.4083 58.1947 75.259 59.4747 75.259 60.456C75.259 61.8213 75.5577 62.8453 76.155 63.528C76.7523 64.168 77.691 64.5947 78.971 64.808C80.2937 65.0213 82.0643 65.128 84.283 65.128C85.6483 65.128 87.1843 65.0853 88.891 65C90.6403 64.872 92.1763 64.7227 93.499 64.552L91.707 72.616C90.7683 72.7867 89.6377 72.936 88.315 73.064C86.9923 73.2347 85.627 73.3413 84.219 73.384C82.811 73.4693 81.467 73.512 80.187 73.512ZM119.499 73.512C115.019 73.512 111.499 73.2133 108.939 72.616C106.379 72.0187 104.565 70.9947 103.499 69.544C102.432 68.0933 101.899 66.088 101.899 63.528C101.899 61.9493 102.091 60.0933 102.475 57.96C102.859 55.8267 103.328 53.3733 103.883 50.6C104.651 46.9733 105.355 43.88 105.995 41.32C106.635 38.7173 107.424 36.584 108.363 34.92C109.301 33.256 110.517 31.9547 112.011 31.016C113.547 30.0347 115.509 29.3733 117.899 29.032C120.331 28.648 123.339 28.456 126.923 28.456C131.403 28.456 134.901 28.7547 137.419 29.352C139.936 29.9493 141.728 30.9733 142.795 32.424C143.861 33.8747 144.395 35.9013 144.395 38.504C144.395 40.1253 144.224 41.9813 143.883 44.072C143.541 46.1627 143.072 48.5947 142.475 51.368C141.664 55.0373 140.896 58.1733 140.171 60.776C139.445 63.336 138.613 65.448 137.675 67.112C136.779 68.776 135.584 70.0773 134.091 71.016C132.64 71.9547 130.741 72.616 128.395 73C126.048 73.3413 123.083 73.512 119.499 73.512ZM120.139 65.128C121.675 65.128 122.955 65.0853 123.979 65C125.003 64.872 125.856 64.5947 126.539 64.168C127.221 63.6987 127.797 62.9733 128.267 61.992C128.736 60.968 129.205 59.5813 129.675 57.832C130.144 56.04 130.677 53.7573 131.275 50.984C131.829 48.4667 132.235 46.3547 132.491 44.648C132.789 42.9413 132.939 41.576 132.939 40.552C132.939 39.3573 132.704 38.504 132.235 37.992C131.808 37.48 131.083 37.16 130.059 37.032C129.077 36.904 127.776 36.84 126.155 36.84C124.576 36.84 123.275 36.904 122.251 37.032C121.227 37.1173 120.373 37.3947 119.691 37.864C119.008 38.2907 118.432 39.016 117.963 40.04C117.493 41.0213 117.024 42.408 116.555 44.2C116.128 45.9493 115.637 48.2107 115.083 50.984C114.699 52.6907 114.357 54.2267 114.059 55.592C113.803 56.9147 113.611 58.0667 113.483 59.048C113.355 59.9867 113.291 60.7973 113.291 61.48C113.291 62.632 113.504 63.464 113.931 63.976C114.4 64.488 115.125 64.808 116.107 64.936C117.131 65.064 118.475 65.128 120.139 65.128ZM147.705 73L157.113 28.968H168.697L178.361 53.032H178.809L183.993 28.968H194.553L185.145 73H174.585L164.345 46.568H163.897L158.265 73H147.705ZM204.186 73L211.738 37.8H199.322L201.242 28.968H237.21L235.29 37.8H222.874L215.386 73H204.186ZM227.108 73L250.916 28.968H266.084L271.14 73H260.26L259.236 64.296H243.044L238.308 73H227.108ZM246.948 56.104H258.66L256.804 38.568H256.356L246.948 56.104ZM295.399 73.512C291.602 73.512 288.509 73.2133 286.12 72.616C283.73 71.976 281.959 70.888 280.807 69.352C279.698 67.7733 279.143 65.6187 279.143 62.888C279.143 61.352 279.271 59.6027 279.527 57.64C279.826 55.6773 280.253 53.4587 280.807 50.984C281.661 47.1867 282.493 43.9653 283.303 41.32C284.157 38.6747 285.095 36.52 286.12 34.856C287.186 33.1493 288.487 31.848 290.024 30.952C291.559 30.0133 293.458 29.3733 295.719 29.032C297.981 28.648 300.754 28.456 304.04 28.456C305.362 28.456 306.749 28.4987 308.2 28.584C309.693 28.6693 311.101 28.7973 312.424 28.968C313.789 29.1387 314.941 29.3307 315.88 29.544L314.152 37.416C312.744 37.288 311.485 37.1813 310.375 37.096C309.266 37.0107 308.306 36.9467 307.496 36.904C306.728 36.8613 306.066 36.84 305.512 36.84C303.506 36.84 301.842 36.9253 300.52 37.096C299.197 37.224 298.109 37.544 297.256 38.056C296.402 38.5253 295.677 39.272 295.08 40.296C294.525 41.2773 294.013 42.6427 293.544 44.392C293.074 46.1413 292.584 48.3387 292.071 50.984C291.602 53.16 291.218 55.0373 290.92 56.616C290.621 58.1947 290.472 59.4747 290.472 60.456C290.472 61.8213 290.77 62.8453 291.368 63.528C291.965 64.168 292.904 64.5947 294.184 64.808C295.506 65.0213 297.277 65.128 299.496 65.128C300.861 65.128 302.397 65.0853 304.104 65C305.853 64.872 307.389 64.7227 308.712 64.552L306.92 72.616C305.981 72.7867 304.85 72.936 303.528 73.064C302.205 73.2347 300.84 73.3413 299.432 73.384C298.024 73.4693 296.679 73.512 295.399 73.512ZM324.151 73L331.703 37.8H319.287L321.207 28.968H357.175L355.255 37.8H342.839L335.351 73H324.151ZM390.134 73.512C386.038 73.512 382.817 73.2133 380.47 72.616C378.123 72.0187 376.438 70.9947 375.414 69.544C374.433 68.0933 373.942 66.152 373.942 63.72C373.942 62.3973 374.07 60.8613 374.326 59.112C374.625 57.32 374.987 55.336 375.414 53.16L380.534 28.968H391.734L386.102 55.4C385.803 56.8933 385.547 58.152 385.334 59.176C385.163 60.2 385.078 61.0533 385.078 61.736C385.078 62.632 385.27 63.3147 385.654 63.784C386.038 64.2533 386.657 64.5733 387.51 64.744C388.363 64.9147 389.515 65 390.966 65C392.63 65 393.931 64.8933 394.87 64.68C395.851 64.4667 396.619 64.04 397.174 63.4C397.771 62.7173 398.241 61.736 398.582 60.456C398.966 59.176 399.393 57.4907 399.862 55.4L405.494 28.968H416.63L411.51 53.16C410.827 56.4453 410.166 59.2827 409.526 61.672C408.929 64.0187 408.182 65.96 407.286 67.496C406.39 69.032 405.238 70.248 403.83 71.144C402.422 71.9973 400.609 72.616 398.39 73C396.214 73.3413 393.462 73.512 390.134 73.512ZM435.006 73.512C433.171 73.512 431.209 73.4693 429.118 73.384C427.07 73.2987 425.065 73.1707 423.102 73C421.139 72.8293 419.411 72.6587 417.918 72.488L419.582 64.36C421.118 64.488 422.697 64.616 424.318 64.744C425.939 64.872 427.475 64.9787 428.926 65.064C430.419 65.1067 431.699 65.128 432.766 65.128C434.089 65.128 435.198 65.1067 436.094 65.064C437.033 65.0213 437.801 64.936 438.398 64.808C439.038 64.68 439.593 64.5093 440.062 64.296C440.361 64.0827 440.638 63.8053 440.894 63.464C441.15 63.1227 441.385 62.7387 441.598 62.312C441.811 61.8427 441.961 61.3733 442.046 60.904C442.174 60.392 442.259 59.9013 442.302 59.432C442.387 58.92 442.43 58.4933 442.43 58.152C442.43 57.5973 442.302 57.192 442.046 56.936C441.79 56.6373 441.278 56.4027 440.51 56.232C439.785 56.0613 438.675 55.848 437.182 55.592L428.286 54.248C426.025 53.9493 424.467 53.2027 423.614 52.008C422.761 50.7707 422.334 49.0853 422.334 46.952C422.334 46.0987 422.398 45.16 422.526 44.136C422.654 43.0693 422.846 41.96 423.102 40.808C423.742 38.12 424.595 35.9653 425.662 34.344C426.771 32.68 428.115 31.4427 429.694 30.632C431.315 29.7787 433.193 29.2027 435.326 28.904C437.459 28.6053 439.827 28.456 442.43 28.456C444.222 28.456 446.078 28.52 447.998 28.648C449.918 28.7333 451.71 28.8613 453.374 29.032C455.038 29.2027 456.425 29.416 457.534 29.672L455.87 37.608C454.718 37.48 453.395 37.352 451.902 37.224C450.451 37.096 448.937 37.0107 447.358 36.968C445.779 36.8827 444.307 36.84 442.942 36.84C441.79 36.84 440.809 36.8827 439.998 36.968C439.187 37.0107 438.483 37.1173 437.886 37.288C437.289 37.416 436.798 37.608 436.414 37.864C435.987 38.12 435.625 38.4613 435.326 38.888C435.027 39.272 434.771 39.72 434.558 40.232C434.387 40.744 434.259 41.256 434.174 41.768C434.131 42.28 434.11 42.792 434.11 43.304C434.11 44.072 434.387 44.584 434.942 44.84C435.497 45.0533 436.499 45.2667 437.95 45.48L446.334 46.696C447.742 46.9093 449.043 47.2293 450.238 47.656C451.433 48.0827 452.393 48.8293 453.118 49.896C453.843 50.92 454.206 52.4773 454.206 54.568C454.206 55.08 454.185 55.6347 454.142 56.232C454.099 56.8293 454.014 57.4693 453.886 58.152C453.801 58.8347 453.673 59.5387 453.502 60.264C452.819 63.336 451.923 65.768 450.814 67.56C449.747 69.3093 448.446 70.6107 446.91 71.464C445.374 72.3173 443.625 72.872 441.662 73.128C439.699 73.384 437.481 73.512 435.006 73.512Z" fill="white"/>
</svg>
