<svg width="493" height="101" viewBox="0 0 493 101" fill="none" xmlns="http://www.w3.org/2000/svg">
<path fill-rule="evenodd" clip-rule="evenodd" d="M457.431 3H235L460.169 5.9758L488.973 37.2817H488.926L483.142 48.5217L493 37.2817H492.977L461.324 3H460H457.431Z" fill="#FD3A4C"/>
<path fill-rule="evenodd" clip-rule="evenodd" d="M35.5693 98L31.6756 98L0.0231048 63.7182L4.02733 63.7182L32.8313 95.0242L258 98L35.5693 98ZM9.85764 52.4783L2.99701e-06 63.7182L4.0744 63.7182L9.85764 52.4783Z" fill="#FD3A4C"/>
<path d="M63.4413 73L72.8493 28.968H104.337L102.545 37.352H82.1933L80.2093 46.696H97.4253L95.6973 54.888H78.4813L76.3693 64.616H96.7213L94.9293 73H63.4413ZM103.846 73L113.254 28.968H134.374C137.617 28.968 140.113 29.3093 141.862 29.992C143.612 30.6747 144.849 31.656 145.574 32.936C146.3 34.216 146.662 35.7947 146.662 37.672C146.662 38.2267 146.62 38.8453 146.534 39.528C146.492 40.168 146.406 40.8507 146.278 41.576C146.15 42.3013 146.001 43.048 145.83 43.816C145.489 45.352 145.084 46.76 144.614 48.04C144.188 49.32 143.676 50.4507 143.078 51.432C142.481 52.4133 141.713 53.288 140.774 54.056C139.836 54.7813 138.662 55.3787 137.254 55.848L140.326 73H128.998L126.822 57.192C126.524 57.192 126.204 57.192 125.862 57.192C125.521 57.192 125.158 57.192 124.774 57.192H118.438L115.046 73H103.846ZM120.102 49.256H127.078C128.529 49.256 129.681 49.1707 130.534 49C131.43 48.7867 132.134 48.4667 132.646 48.04C133.158 47.6133 133.564 47.016 133.862 46.248C134.161 45.4373 134.438 44.4347 134.694 43.24C134.822 42.5573 134.929 41.9387 135.014 41.384C135.1 40.8293 135.142 40.3387 135.142 39.912C135.142 39.272 134.993 38.76 134.694 38.376C134.396 37.9493 133.841 37.6507 133.03 37.48C132.262 37.2667 131.174 37.16 129.766 37.16H122.662L120.102 49.256ZM148.564 73L157.972 28.968H179.092C182.334 28.968 184.83 29.3093 186.58 29.992C188.329 30.6747 189.566 31.656 190.292 32.936C191.017 34.216 191.38 35.7947 191.38 37.672C191.38 38.2267 191.337 38.8453 191.252 39.528C191.209 40.168 191.124 40.8507 190.996 41.576C190.868 42.3013 190.718 43.048 190.548 43.816C190.206 45.352 189.801 46.76 189.332 48.04C188.905 49.32 188.393 50.4507 187.796 51.432C187.198 52.4133 186.43 53.288 185.492 54.056C184.553 54.7813 183.38 55.3787 181.972 55.848L185.044 73H173.716L171.54 57.192C171.241 57.192 170.921 57.192 170.58 57.192C170.238 57.192 169.876 57.192 169.492 57.192H163.156L159.764 73H148.564ZM164.82 49.256H171.796C173.246 49.256 174.398 49.1707 175.252 49C176.148 48.7867 176.852 48.4667 177.364 48.04C177.876 47.6133 178.281 47.016 178.58 46.248C178.878 45.4373 179.156 44.4347 179.412 43.24C179.54 42.5573 179.646 41.9387 179.732 41.384C179.817 40.8293 179.86 40.3387 179.86 39.912C179.86 39.272 179.71 38.76 179.412 38.376C179.113 37.9493 178.558 37.6507 177.748 37.48C176.98 37.2667 175.892 37.16 174.484 37.16H167.38L164.82 49.256ZM212.417 73.512C207.937 73.512 204.417 73.2133 201.857 72.616C199.297 72.0187 197.484 70.9947 196.417 69.544C195.351 68.0933 194.817 66.088 194.817 63.528C194.817 61.9493 195.009 60.0933 195.393 57.96C195.777 55.8267 196.247 53.3733 196.801 50.6C197.569 46.9733 198.273 43.88 198.913 41.32C199.553 38.7173 200.343 36.584 201.281 34.92C202.22 33.256 203.436 31.9547 204.929 31.016C206.465 30.0347 208.428 29.3733 210.817 29.032C213.249 28.648 216.257 28.456 219.841 28.456C224.321 28.456 227.82 28.7547 230.337 29.352C232.855 29.9493 234.647 30.9733 235.713 32.424C236.78 33.8747 237.313 35.9013 237.313 38.504C237.313 40.1253 237.143 41.9813 236.801 44.072C236.46 46.1627 235.991 48.5947 235.393 51.368C234.583 55.0373 233.815 58.1733 233.089 60.776C232.364 63.336 231.532 65.448 230.593 67.112C229.697 68.776 228.503 70.0773 227.009 71.016C225.559 71.9547 223.66 72.616 221.313 73C218.967 73.3413 216.001 73.512 212.417 73.512ZM213.057 65.128C214.593 65.128 215.873 65.0853 216.897 65C217.921 64.872 218.775 64.5947 219.457 64.168C220.14 63.6987 220.716 62.9733 221.185 61.992C221.655 60.968 222.124 59.5813 222.593 57.832C223.063 56.04 223.596 53.7573 224.193 50.984C224.748 48.4667 225.153 46.3547 225.409 44.648C225.708 42.9413 225.857 41.576 225.857 40.552C225.857 39.3573 225.623 38.504 225.153 37.992C224.727 37.48 224.001 37.16 222.977 37.032C221.996 36.904 220.695 36.84 219.073 36.84C217.495 36.84 216.193 36.904 215.169 37.032C214.145 37.1173 213.292 37.3947 212.609 37.864C211.927 38.2907 211.351 39.016 210.881 40.04C210.412 41.0213 209.943 42.408 209.473 44.2C209.047 45.9493 208.556 48.2107 208.001 50.984C207.617 52.6907 207.276 54.2267 206.977 55.592C206.721 56.9147 206.529 58.0667 206.401 59.048C206.273 59.9867 206.209 60.7973 206.209 61.48C206.209 62.632 206.423 63.464 206.849 63.976C207.319 64.488 208.044 64.808 209.025 64.936C210.049 65.064 211.393 65.128 213.057 65.128ZM240.624 73L250.032 28.968H271.152C274.394 28.968 276.89 29.3093 278.64 29.992C280.389 30.6747 281.626 31.656 282.352 32.936C283.077 34.216 283.44 35.7947 283.44 37.672C283.44 38.2267 283.397 38.8453 283.312 39.528C283.269 40.168 283.184 40.8507 283.056 41.576C282.928 42.3013 282.778 43.048 282.608 43.816C282.266 45.352 281.861 46.76 281.392 48.04C280.965 49.32 280.453 50.4507 279.856 51.432C279.258 52.4133 278.49 53.288 277.552 54.056C276.613 54.7813 275.44 55.3787 274.032 55.848L277.104 73H265.776L263.6 57.192C263.301 57.192 262.981 57.192 262.64 57.192C262.298 57.192 261.936 57.192 261.552 57.192H255.216L251.824 73H240.624ZM256.88 49.256H263.856C265.306 49.256 266.458 49.1707 267.312 49C268.208 48.7867 268.912 48.4667 269.424 48.04C269.936 47.6133 270.341 47.016 270.64 46.248C270.938 45.4373 271.216 44.4347 271.472 43.24C271.6 42.5573 271.706 41.9387 271.792 41.384C271.877 40.8293 271.92 40.3387 271.92 39.912C271.92 39.272 271.77 38.76 271.472 38.376C271.173 37.9493 270.618 37.6507 269.808 37.48C269.04 37.2667 267.952 37.16 266.544 37.16H259.44L256.88 49.256ZM322.385 73L324.305 64.04H302.737L304.273 56.616L325.073 28.968H337.553L316.177 55.656H326.481L332.049 44.712H339.345L337.041 55.656H342.545L340.817 64.04H335.249L333.329 73H322.385ZM363.989 73.512C360.021 73.512 356.885 73.2773 354.581 72.808C352.277 72.3387 350.613 71.4427 349.589 70.12C348.608 68.7973 348.117 66.856 348.117 64.296C348.117 62.6747 348.288 60.7547 348.629 58.536C349.013 56.2747 349.525 53.6507 350.165 50.664C350.976 46.696 351.744 43.368 352.469 40.68C353.237 37.992 354.091 35.8587 355.029 34.28C355.968 32.6587 357.141 31.4213 358.549 30.568C360 29.7147 361.813 29.16 363.989 28.904C366.165 28.6053 368.875 28.456 372.117 28.456C375.104 28.456 377.6 28.584 379.605 28.84C381.653 29.096 383.296 29.544 384.533 30.184C385.813 30.824 386.709 31.7627 387.221 33C387.776 34.1947 388.053 35.7733 388.053 37.736C388.053 39.3573 387.861 41.2773 387.477 43.496C387.136 45.7147 386.667 48.3173 386.069 51.304C385.216 55.272 384.427 58.6 383.701 61.288C382.976 63.976 382.144 66.1307 381.205 67.752C380.267 69.3307 379.072 70.5467 377.621 71.4C376.171 72.2533 374.357 72.808 372.181 73.064C370.005 73.3627 367.275 73.512 363.989 73.512ZM365.077 65.128C366.4 65.128 367.488 65.0853 368.341 65C369.195 64.872 369.899 64.5733 370.453 64.104C371.051 63.6347 371.563 62.9093 371.989 61.928C372.416 60.9467 372.843 59.5813 373.269 57.832C373.696 56.04 374.208 53.7573 374.805 50.984C375.403 48.2107 375.851 45.9707 376.149 44.264C376.491 42.5147 376.661 41.128 376.661 40.104C376.661 39.0373 376.469 38.2907 376.085 37.864C375.744 37.3947 375.147 37.1173 374.293 37.032C373.483 36.904 372.416 36.84 371.093 36.84C369.728 36.84 368.619 36.904 367.765 37.032C366.955 37.1173 366.251 37.3947 365.653 37.864C365.056 38.3333 364.544 39.0587 364.117 40.04C363.691 41.0213 363.264 42.408 362.837 44.2C362.411 45.9493 361.899 48.2107 361.301 50.984C360.917 52.8187 360.576 54.44 360.277 55.848C360.021 57.256 359.808 58.4507 359.637 59.432C359.509 60.4133 359.445 61.2453 359.445 61.928C359.445 62.952 359.616 63.6987 359.957 64.168C360.341 64.5947 360.939 64.872 361.749 65C362.603 65.0853 363.712 65.128 365.077 65.128ZM409.883 73L411.803 64.04H390.235L391.771 56.616L412.571 28.968H425.051L403.675 55.656H413.979L419.547 44.712H426.843L424.539 55.656H430.043L428.315 64.04H422.747L420.827 73H409.883Z" fill="white"/>
</svg>
