<svg width="292" height="101" viewBox="0 0 292 101" fill="none" xmlns="http://www.w3.org/2000/svg">
<path fill-rule="evenodd" clip-rule="evenodd" d="M256.431 3H34L259.169 5.9758L287.973 37.2817H287.926L282.142 48.5217L292 37.2817H291.977L260.325 3H259H256.431Z" fill="#FD3A4C"/>
<path fill-rule="evenodd" clip-rule="evenodd" d="M35.5689 98L258 98L32.831 95.0242L4.02693 63.7182L4.0744 63.7182L9.85764 52.4783L2.99701e-06 63.7182L0.0227081 63.7182L31.6752 98L33 98L35.5689 98Z" fill="#FD3A4C"/>
<path d="M83.5313 73L92.9393 28.968H123.147L121.355 37.352H102.283L99.9153 48.168H116.555L114.763 56.616H98.1873L94.6673 73H83.5313ZM114.467 73L138.275 28.968H153.443L158.499 73H147.619L146.595 64.296H130.403L125.667 73H114.467ZM134.307 56.104H146.019L144.163 38.568H143.715L134.307 56.104ZM191.014 80.36L186.534 70.504H197.734L202.47 80.04L202.406 80.36H191.014ZM184.102 73.512C179.622 73.512 176.102 73.2133 173.542 72.616C170.982 72.0187 169.169 70.9947 168.102 69.544C167.036 68.0933 166.502 66.088 166.502 63.528C166.502 61.9493 166.694 60.0933 167.078 57.96C167.462 55.8267 167.932 53.3733 168.486 50.6C169.254 46.9733 169.958 43.88 170.598 41.32C171.238 38.7173 172.028 36.584 172.966 34.92C173.905 33.256 175.121 31.9547 176.614 31.016C178.15 30.0347 180.113 29.3733 182.502 29.032C184.934 28.648 187.942 28.456 191.526 28.456C196.006 28.456 199.505 28.7547 202.022 29.352C204.54 29.9493 206.332 30.9733 207.398 32.424C208.465 33.8747 208.998 35.9013 208.998 38.504C208.998 40.1253 208.828 41.9813 208.486 44.072C208.145 46.1627 207.676 48.5947 207.078 51.368C206.268 55.0373 205.5 58.1733 204.774 60.776C204.049 63.336 203.217 65.448 202.278 67.112C201.382 68.776 200.188 70.0773 198.694 71.016C197.244 71.9547 195.345 72.616 192.998 73C190.652 73.3413 187.686 73.512 184.102 73.512ZM184.742 65.128C186.278 65.128 187.558 65.0853 188.582 65C189.606 64.872 190.46 64.5947 191.142 64.168C191.825 63.6987 192.401 62.9733 192.87 61.992C193.34 60.968 193.809 59.5813 194.278 57.832C194.748 56.04 195.281 53.7573 195.878 50.984C196.433 48.4667 196.838 46.3547 197.094 44.648C197.393 42.9413 197.542 41.576 197.542 40.552C197.542 39.3573 197.308 38.504 196.838 37.992C196.412 37.48 195.686 37.16 194.662 37.032C193.681 36.904 192.38 36.84 190.758 36.84C189.18 36.84 187.878 36.904 186.854 37.032C185.83 37.1173 184.977 37.3947 184.294 37.864C183.612 38.2907 183.036 39.016 182.566 40.04C182.097 41.0213 181.628 42.408 181.158 44.2C180.732 45.9493 180.241 48.2107 179.686 50.984C179.302 52.6907 178.961 54.2267 178.662 55.592C178.406 56.9147 178.214 58.0667 178.086 59.048C177.958 59.9867 177.894 60.7973 177.894 61.48C177.894 62.632 178.108 63.464 178.534 63.976C179.004 64.488 179.729 64.808 180.71 64.936C181.734 65.064 183.078 65.128 184.742 65.128Z" fill="white"/>
</svg>
