<svg width="241" height="91" viewBox="0 0 241 91" fill="none" xmlns="http://www.w3.org/2000/svg">
<path d="M25.661 36.256C23.7623 36.256 22.2157 36.1067 21.021 35.808C19.8263 35.488 18.941 34.944 18.365 34.176C17.8103 33.3867 17.533 32.3093 17.533 30.944C17.533 30.176 17.597 29.3013 17.725 28.32C17.8743 27.3387 18.0877 26.2293 18.365 24.992C18.7917 23.0933 19.2077 21.4827 19.613 20.16C20.0397 18.8373 20.509 17.76 21.021 16.928C21.5543 16.0747 22.205 15.424 22.973 14.976C23.741 14.5067 24.6903 14.1867 25.821 14.016C26.9517 13.824 28.3383 13.728 29.981 13.728C30.6423 13.728 31.3357 13.7493 32.061 13.792C32.8077 13.8347 33.5117 13.8987 34.173 13.984C34.8557 14.0693 35.4317 14.1653 35.901 14.272L35.037 18.208C34.333 18.144 33.7037 18.0907 33.149 18.048C32.5943 18.0053 32.1143 17.9733 31.709 17.952C31.325 17.9307 30.9943 17.92 30.717 17.92C29.7143 17.92 28.8823 17.9627 28.221 18.048C27.5597 18.112 27.0157 18.272 26.589 18.528C26.1623 18.7627 25.7997 19.136 25.501 19.648C25.2237 20.1387 24.9677 20.8213 24.733 21.696C24.4983 22.5707 24.253 23.6693 23.997 24.992C23.7623 26.08 23.5703 27.0187 23.421 27.808C23.2717 28.5973 23.197 29.2373 23.197 29.728C23.197 30.4107 23.3463 30.9227 23.645 31.264C23.9437 31.584 24.413 31.7973 25.053 31.904C25.7143 32.0107 26.5997 32.064 27.709 32.064C28.3917 32.064 29.1597 32.0427 30.013 32C30.8877 31.936 31.6557 31.8613 32.317 31.776L31.421 35.808C30.9517 35.8933 30.3863 35.968 29.725 36.032C29.0637 36.1173 28.381 36.1707 27.677 36.192C26.973 36.2347 26.301 36.256 25.661 36.256ZM35.1088 36L39.8128 13.984H45.4128L43.5568 22.624H50.9488L52.8048 13.984H58.3728L53.6688 36H48.1008L49.9568 27.264H42.5648L40.7088 36H35.1088ZM67.833 36.256C65.593 36.256 63.833 36.1067 62.553 35.808C61.273 35.5093 60.3663 34.9973 59.833 34.272C59.2997 33.5467 59.033 32.544 59.033 31.264C59.033 30.4747 59.129 29.5467 59.321 28.48C59.513 27.4133 59.7477 26.1867 60.025 24.8C60.409 22.9867 60.761 21.44 61.081 20.16C61.401 18.8587 61.7957 17.792 62.265 16.96C62.7343 16.128 63.3423 15.4773 64.089 15.008C64.857 14.5173 65.8383 14.1867 67.033 14.016C68.249 13.824 69.753 13.728 71.545 13.728C73.785 13.728 75.5343 13.8773 76.793 14.176C78.0517 14.4747 78.9477 14.9867 79.481 15.712C80.0143 16.4373 80.281 17.4507 80.281 18.752C80.281 19.5627 80.1957 20.4907 80.025 21.536C79.8543 22.5813 79.6197 23.7973 79.321 25.184C78.9157 27.0187 78.5317 28.5867 78.169 29.888C77.8063 31.168 77.3903 32.224 76.921 33.056C76.473 33.888 75.8757 34.5387 75.129 35.008C74.4037 35.4773 73.4543 35.808 72.281 36C71.1077 36.1707 69.625 36.256 67.833 36.256ZM68.153 32.064C68.921 32.064 69.561 32.0427 70.073 32C70.585 31.936 71.0117 31.7973 71.353 31.584C71.6943 31.3493 71.9823 30.9867 72.217 30.496C72.4517 29.984 72.6863 29.2907 72.921 28.416C73.1557 27.52 73.4223 26.3787 73.721 24.992C73.9983 23.7333 74.201 22.6773 74.329 21.824C74.4783 20.9707 74.553 20.288 74.553 19.776C74.553 19.1787 74.4357 18.752 74.201 18.496C73.9877 18.24 73.625 18.08 73.113 18.016C72.6223 17.952 71.9717 17.92 71.161 17.92C70.3717 17.92 69.721 17.952 69.209 18.016C68.697 18.0587 68.2703 18.1973 67.929 18.432C67.5877 18.6453 67.2997 19.008 67.065 19.52C66.8303 20.0107 66.5957 20.704 66.361 21.6C66.1477 22.4747 65.9023 23.6053 65.625 24.992C65.433 25.8453 65.2623 26.6133 65.113 27.296C64.985 27.9573 64.889 28.5333 64.825 29.024C64.761 29.4933 64.729 29.8987 64.729 30.24C64.729 30.816 64.8357 31.232 65.049 31.488C65.2837 31.744 65.6463 31.904 66.137 31.968C66.649 32.032 67.321 32.064 68.153 32.064ZM90.8643 36.256C88.6243 36.256 86.8643 36.1067 85.5843 35.808C84.3043 35.5093 83.3976 34.9973 82.8643 34.272C82.3309 33.5467 82.0643 32.544 82.0643 31.264C82.0643 30.4747 82.1603 29.5467 82.3523 28.48C82.5443 27.4133 82.7789 26.1867 83.0563 24.8C83.4403 22.9867 83.7923 21.44 84.1123 20.16C84.4323 18.8587 84.8269 17.792 85.2963 16.96C85.7656 16.128 86.3736 15.4773 87.1203 15.008C87.8883 14.5173 88.8696 14.1867 90.0642 14.016C91.2803 13.824 92.7843 13.728 94.5763 13.728C96.8163 13.728 98.5656 13.8773 99.8243 14.176C101.083 14.4747 101.979 14.9867 102.512 15.712C103.046 16.4373 103.312 17.4507 103.312 18.752C103.312 19.5627 103.227 20.4907 103.056 21.536C102.886 22.5813 102.651 23.7973 102.352 25.184C101.947 27.0187 101.563 28.5867 101.2 29.888C100.838 31.168 100.422 32.224 99.9523 33.056C99.5043 33.888 98.9069 34.5387 98.1603 35.008C97.4349 35.4773 96.4856 35.808 95.3123 36C94.1389 36.1707 92.6563 36.256 90.8643 36.256ZM91.1843 32.064C91.9523 32.064 92.5923 32.0427 93.1043 32C93.6163 31.936 94.0429 31.7973 94.3843 31.584C94.7256 31.3493 95.0136 30.9867 95.2483 30.496C95.4829 29.984 95.7176 29.2907 95.9523 28.416C96.1869 27.52 96.4536 26.3787 96.7523 24.992C97.0296 23.7333 97.2323 22.6773 97.3603 21.824C97.5096 20.9707 97.5843 20.288 97.5843 19.776C97.5843 19.1787 97.4669 18.752 97.2323 18.496C97.0189 18.24 96.6563 18.08 96.1443 18.016C95.6536 17.952 95.0029 17.92 94.1923 17.92C93.4029 17.92 92.7523 17.952 92.2403 18.016C91.7283 18.0587 91.3016 18.1973 90.9603 18.432C90.6189 18.6453 90.3309 19.008 90.0963 19.52C89.8616 20.0107 89.6269 20.704 89.3923 21.6C89.1789 22.4747 88.9336 23.6053 88.6562 24.992C88.4643 25.8453 88.2936 26.6133 88.1443 27.296C88.0163 27.9573 87.9203 28.5333 87.8563 29.024C87.7923 29.4933 87.7603 29.8987 87.7603 30.24C87.7603 30.816 87.8669 31.232 88.0803 31.488C88.3149 31.744 88.6776 31.904 89.1683 31.968C89.6803 32.032 90.3523 32.064 91.1843 32.064ZM112.936 36.256C112.018 36.256 111.037 36.2347 109.992 36.192C108.968 36.1493 107.965 36.0853 106.984 36C106.002 35.9147 105.138 35.8293 104.392 35.744L105.224 31.68C105.992 31.744 106.781 31.808 107.592 31.872C108.402 31.936 109.17 31.9893 109.896 32.032C110.642 32.0533 111.282 32.064 111.816 32.064C112.477 32.064 113.032 32.0533 113.48 32.032C113.949 32.0107 114.333 31.968 114.632 31.904C114.952 31.84 115.229 31.7547 115.464 31.648C115.613 31.5413 115.752 31.4027 115.88 31.232C116.008 31.0613 116.125 30.8693 116.232 30.656C116.338 30.4213 116.413 30.1867 116.456 29.952C116.52 29.696 116.562 29.4507 116.584 29.216C116.626 28.96 116.648 28.7467 116.648 28.576C116.648 28.2987 116.584 28.096 116.456 27.968C116.328 27.8187 116.072 27.7013 115.688 27.616C115.325 27.5307 114.77 27.424 114.024 27.296L109.576 26.624C108.445 26.4747 107.666 26.1013 107.24 25.504C106.813 24.8853 106.6 24.0427 106.6 22.976C106.6 22.5493 106.632 22.08 106.696 21.568C106.76 21.0347 106.856 20.48 106.984 19.904C107.304 18.56 107.73 17.4827 108.264 16.672C108.818 15.84 109.49 15.2213 110.28 14.816C111.09 14.3893 112.029 14.1013 113.095 13.952C114.162 13.8027 115.346 13.728 116.648 13.728C117.544 13.728 118.472 13.76 119.432 13.824C120.392 13.8667 121.288 13.9307 122.12 14.016C122.952 14.1013 123.645 14.208 124.2 14.336L123.368 18.304C122.792 18.24 122.13 18.176 121.384 18.112C120.658 18.048 119.901 18.0053 119.112 17.984C118.322 17.9413 117.586 17.92 116.904 17.92C116.328 17.92 115.837 17.9413 115.432 17.984C115.026 18.0053 114.674 18.0587 114.376 18.144C114.077 18.208 113.832 18.304 113.64 18.432C113.426 18.56 113.245 18.7307 113.095 18.944C112.946 19.136 112.818 19.36 112.712 19.616C112.626 19.872 112.562 20.128 112.52 20.384C112.498 20.64 112.488 20.896 112.488 21.152C112.488 21.536 112.626 21.792 112.904 21.92C113.181 22.0267 113.682 22.1333 114.408 22.24L118.6 22.848C119.304 22.9547 119.954 23.1147 120.552 23.328C121.149 23.5413 121.629 23.9147 121.992 24.448C122.354 24.96 122.536 25.7387 122.536 26.784C122.536 27.04 122.525 27.3173 122.503 27.616C122.482 27.9147 122.44 28.2347 122.376 28.576C122.333 28.9173 122.269 29.2693 122.184 29.632C121.842 31.168 121.394 32.384 120.84 33.28C120.306 34.1547 119.656 34.8053 118.888 35.232C118.12 35.6587 117.245 35.936 116.264 36.064C115.282 36.192 114.173 36.256 112.936 36.256ZM124.515 36L129.219 13.984H144.963L144.067 18.176H133.891L132.899 22.848H141.507L140.643 26.944H132.035L130.979 31.808H141.155L140.259 36H124.515ZM157.48 36L159.144 28.384L154.664 13.984H160.264L162.824 23.2H163.048L169.576 13.984H175.368L164.712 28.384L163.08 36H157.48ZM182.833 36.256C180.593 36.256 178.833 36.1067 177.553 35.808C176.273 35.5093 175.366 34.9973 174.833 34.272C174.3 33.5467 174.033 32.544 174.033 31.264C174.033 30.4747 174.129 29.5467 174.321 28.48C174.513 27.4133 174.748 26.1867 175.025 24.8C175.409 22.9867 175.761 21.44 176.081 20.16C176.401 18.8587 176.796 17.792 177.265 16.96C177.734 16.128 178.342 15.4773 179.089 15.008C179.857 14.5173 180.838 14.1867 182.033 14.016C183.249 13.824 184.753 13.728 186.545 13.728C188.785 13.728 190.534 13.8773 191.793 14.176C193.052 14.4747 193.948 14.9867 194.481 15.712C195.014 16.4373 195.281 17.4507 195.281 18.752C195.281 19.5627 195.196 20.4907 195.025 21.536C194.854 22.5813 194.62 23.7973 194.321 25.184C193.916 27.0187 193.532 28.5867 193.169 29.888C192.806 31.168 192.39 32.224 191.921 33.056C191.473 33.888 190.876 34.5387 190.129 35.008C189.404 35.4773 188.454 35.808 187.281 36C186.108 36.1707 184.625 36.256 182.833 36.256ZM183.153 32.064C183.921 32.064 184.561 32.0427 185.073 32C185.585 31.936 186.012 31.7973 186.353 31.584C186.694 31.3493 186.982 30.9867 187.217 30.496C187.452 29.984 187.686 29.2907 187.921 28.416C188.156 27.52 188.422 26.3787 188.721 24.992C188.998 23.7333 189.201 22.6773 189.329 21.824C189.478 20.9707 189.553 20.288 189.553 19.776C189.553 19.1787 189.436 18.752 189.201 18.496C188.988 18.24 188.625 18.08 188.113 18.016C187.622 17.952 186.972 17.92 186.161 17.92C185.372 17.92 184.721 17.952 184.209 18.016C183.697 18.0587 183.27 18.1973 182.929 18.432C182.588 18.6453 182.3 19.008 182.065 19.52C181.83 20.0107 181.596 20.704 181.361 21.6C181.148 22.4747 180.902 23.6053 180.625 24.992C180.433 25.8453 180.262 26.6133 180.113 27.296C179.985 27.9573 179.889 28.5333 179.825 29.024C179.761 29.4933 179.729 29.8987 179.729 30.24C179.729 30.816 179.836 31.232 180.049 31.488C180.284 31.744 180.646 31.904 181.137 31.968C181.649 32.032 182.321 32.064 183.153 32.064ZM205.608 36.256C203.56 36.256 201.95 36.1067 200.776 35.808C199.603 35.5093 198.76 34.9973 198.248 34.272C197.758 33.5467 197.512 32.576 197.512 31.36C197.512 30.6987 197.576 29.9307 197.704 29.056C197.854 28.16 198.035 27.168 198.248 26.08L200.808 13.984H206.408L203.592 27.2C203.443 27.9467 203.315 28.576 203.208 29.088C203.123 29.6 203.08 30.0267 203.08 30.368C203.08 30.816 203.176 31.1573 203.368 31.392C203.56 31.6267 203.87 31.7867 204.296 31.872C204.723 31.9573 205.299 32 206.024 32C206.856 32 207.507 31.9467 207.976 31.84C208.467 31.7333 208.851 31.52 209.128 31.2C209.427 30.8587 209.662 30.368 209.832 29.728C210.024 29.088 210.238 28.2453 210.472 27.2L213.288 13.984H218.856L216.296 26.08C215.955 27.7227 215.624 29.1413 215.304 30.336C215.006 31.5093 214.632 32.48 214.184 33.248C213.736 34.016 213.16 34.624 212.456 35.072C211.752 35.4987 210.846 35.808 209.736 36C208.648 36.1707 207.272 36.256 205.608 36.256ZM218.796 36L223.5 13.984H234.06C235.682 13.984 236.93 14.1547 237.804 14.496C238.679 14.8373 239.298 15.328 239.66 15.968C240.023 16.608 240.204 17.3973 240.204 18.336C240.204 18.6133 240.183 18.9227 240.14 19.264C240.119 19.584 240.076 19.9253 240.012 20.288C239.948 20.6507 239.874 21.024 239.788 21.408C239.618 22.176 239.415 22.88 239.18 23.52C238.967 24.16 238.711 24.7253 238.412 25.216C238.114 25.7067 237.73 26.144 237.26 26.528C236.791 26.8907 236.204 27.1893 235.5 27.424L237.036 36H231.372L230.284 28.096C230.135 28.096 229.975 28.096 229.804 28.096C229.634 28.096 229.452 28.096 229.26 28.096H226.092L224.396 36H218.796ZM226.924 24.128H230.412C231.138 24.128 231.714 24.0853 232.14 24C232.588 23.8933 232.94 23.7333 233.196 23.52C233.452 23.3067 233.655 23.008 233.804 22.624C233.954 22.2187 234.092 21.7173 234.22 21.12C234.284 20.7787 234.338 20.4693 234.38 20.192C234.423 19.9147 234.444 19.6693 234.444 19.456C234.444 19.136 234.37 18.88 234.22 18.688C234.071 18.4747 233.794 18.3253 233.388 18.24C233.004 18.1333 232.46 18.08 231.756 18.08H228.204L226.924 24.128ZM61.9525 76L66.6565 53.984H81.7605L80.8645 58.176H71.3285L70.1445 63.584H78.4645L77.5685 67.808H69.2805L67.5205 76H61.9525ZM80.2338 76L84.9378 53.984H90.5378L85.8338 76H80.2338ZM99.9573 76.256C97.8666 76.256 96.1706 76.0747 94.8693 75.712C93.5893 75.3493 92.6506 74.7413 92.0533 73.888C91.4773 73.0347 91.1893 71.84 91.1893 70.304C91.1893 69.5787 91.2533 68.7573 91.3813 67.84C91.5306 66.9227 91.7226 65.9093 91.9573 64.8C92.3413 63.0293 92.7359 61.5147 93.1413 60.256C93.5679 58.976 94.0693 57.9093 94.6453 57.056C95.2426 56.2027 95.9466 55.5413 96.7573 55.072C97.5679 54.5813 98.5599 54.24 99.7333 54.048C100.907 53.8347 102.304 53.728 103.925 53.728C104.736 53.728 105.611 53.76 106.549 53.824C107.509 53.888 108.459 53.9733 109.397 54.08C110.336 54.1867 111.179 54.304 111.925 54.432L111.093 58.368C110.432 58.2827 109.739 58.208 109.013 58.144C108.288 58.08 107.605 58.0267 106.965 57.984C106.347 57.9413 105.824 57.92 105.397 57.92C104.224 57.92 103.243 57.952 102.453 58.016C101.664 58.0587 101.013 58.1973 100.501 58.432C99.9893 58.6453 99.5519 59.008 99.1892 59.52C98.8479 60.0107 98.5386 60.704 98.2613 61.6C98.0053 62.4747 97.7386 63.6053 97.4613 64.992C97.2266 66.016 97.0453 66.912 96.9173 67.68C96.8106 68.4267 96.7573 69.0667 96.7573 69.6C96.7573 70.304 96.8853 70.848 97.1413 71.232C97.3973 71.5947 97.8026 71.84 98.3573 71.968C98.9333 72.096 99.6799 72.16 100.597 72.16C100.832 72.16 101.109 72.16 101.429 72.16C101.771 72.1387 102.101 72.1173 102.421 72.096C102.763 72.0533 103.061 72.032 103.317 72.032L104.309 67.2H100.949L101.781 63.328H110.165L107.541 75.616C106.795 75.744 105.963 75.8613 105.045 75.968C104.149 76.0533 103.253 76.1173 102.357 76.16C101.483 76.224 100.683 76.256 99.9573 76.256ZM111.984 76L116.688 53.984H122.288L120.432 62.624H127.824L129.68 53.984H135.248L130.544 76H124.976L126.832 67.264H119.44L117.584 76H111.984ZM139.428 76L143.204 58.4H136.996L137.956 53.984H155.94L154.98 58.4H148.772L145.028 76H139.428ZM154.046 76L158.75 53.984H174.494L173.598 58.176H163.422L162.43 62.848H171.038L170.174 66.944H161.566L160.51 71.808H170.686L169.79 76H154.046ZM173.609 76L178.313 53.984H188.873C190.494 53.984 191.742 54.1547 192.617 54.496C193.491 54.8373 194.11 55.328 194.473 55.968C194.835 56.608 195.017 57.3973 195.017 58.336C195.017 58.6133 194.995 58.9227 194.953 59.264C194.931 59.584 194.889 59.9253 194.825 60.288C194.761 60.6507 194.686 61.024 194.601 61.408C194.43 62.176 194.227 62.88 193.993 63.52C193.779 64.16 193.523 64.7253 193.225 65.216C192.926 65.7067 192.542 66.144 192.073 66.528C191.603 66.8907 191.017 67.1893 190.313 67.424L191.849 76H186.185L185.097 68.096C184.947 68.096 184.787 68.096 184.617 68.096C184.446 68.096 184.265 68.096 184.073 68.096H180.905L179.209 76H173.609ZM181.737 64.128H185.225C185.95 64.128 186.526 64.0853 186.953 64C187.401 63.8933 187.753 63.7333 188.009 63.52C188.265 63.3067 188.467 63.008 188.617 62.624C188.766 62.2187 188.905 61.7173 189.033 61.12C189.097 60.7787 189.15 60.4693 189.193 60.192C189.235 59.9147 189.257 59.6693 189.257 59.456C189.257 59.136 189.182 58.88 189.033 58.688C188.883 58.4747 188.606 58.3253 188.201 58.24C187.817 58.1333 187.273 58.08 186.569 58.08H183.017L181.737 64.128Z" fill="white"/>
<path fill-rule="evenodd" clip-rule="evenodd" d="M196.028 90.2666H103L197.246 88.9424L210.07 75.0042H210.049L207.474 70.0001L211.863 75.0042H211.853L197.761 90.2666H197.171H196.028Z" fill="#FD3A4C"/>
<path fill-rule="evenodd" clip-rule="evenodd" d="M15.8354 0H108.897L14.6167 1.32464L1.79277 15.2624H0.0100708L14.1019 0H14.726H15.8354ZM4.38867 20.2666L0 15.2626H1.81394L4.38867 20.2666Z" fill="#FD3A4C"/>
</svg>
