<svg width="876" height="101" viewBox="0 0 876 101" fill="none" xmlns="http://www.w3.org/2000/svg">
<path d="M80.177 73.512C76.3797 73.512 73.2863 73.2133 70.897 72.616C68.5077 71.976 66.737 70.888 65.585 69.352C64.4757 67.7733 63.921 65.6187 63.921 62.888C63.921 61.352 64.049 59.6027 64.305 57.64C64.6037 55.6773 65.0303 53.4587 65.585 50.984C66.4383 47.1867 67.2703 43.9653 68.081 41.32C68.9343 38.6747 69.873 36.52 70.897 34.856C71.9637 33.1493 73.265 31.848 74.801 30.952C76.337 30.0133 78.2357 29.3733 80.497 29.032C82.7583 28.648 85.5317 28.456 88.817 28.456C90.1397 28.456 91.5263 28.4987 92.977 28.584C94.4703 28.6693 95.8783 28.7973 97.201 28.968C98.5663 29.1387 99.7183 29.3307 100.657 29.544L98.929 37.416C97.521 37.288 96.2623 37.1813 95.153 37.096C94.0437 37.0107 93.0837 36.9467 92.273 36.904C91.505 36.8613 90.8437 36.84 90.289 36.84C88.2837 36.84 86.6197 36.9253 85.297 37.096C83.9743 37.224 82.8863 37.544 82.033 38.056C81.1797 38.5253 80.4543 39.272 79.857 40.296C79.3023 41.2773 78.7903 42.6427 78.321 44.392C77.8517 46.1413 77.361 48.3387 76.849 50.984C76.3797 53.16 75.9957 55.0373 75.697 56.616C75.3983 58.1947 75.249 59.4747 75.249 60.456C75.249 61.8213 75.5477 62.8453 76.145 63.528C76.7423 64.168 77.681 64.5947 78.961 64.808C80.2837 65.0213 82.0543 65.128 84.273 65.128C85.6383 65.128 87.1743 65.0853 88.881 65C90.6303 64.872 92.1663 64.7227 93.489 64.552L91.697 72.616C90.7583 72.7867 89.6277 72.936 88.305 73.064C86.9823 73.2347 85.617 73.3413 84.209 73.384C82.801 73.4693 81.457 73.512 80.177 73.512ZM100.353 73L109.761 28.968H120.961L117.249 46.248H132.033L135.745 28.968H146.881L137.473 73H126.337L130.049 55.528H115.265L111.553 73H100.353ZM167.081 73.512C162.601 73.512 159.081 73.2133 156.521 72.616C153.961 72.0187 152.148 70.9947 151.081 69.544C150.014 68.0933 149.481 66.088 149.481 63.528C149.481 61.9493 149.673 60.0933 150.057 57.96C150.441 55.8267 150.91 53.3733 151.465 50.6C152.233 46.9733 152.937 43.88 153.577 41.32C154.217 38.7173 155.006 36.584 155.945 34.92C156.884 33.256 158.1 31.9547 159.593 31.016C161.129 30.0347 163.092 29.3733 165.481 29.032C167.913 28.648 170.921 28.456 174.505 28.456C178.985 28.456 182.484 28.7547 185.001 29.352C187.518 29.9493 189.31 30.9733 190.377 32.424C191.444 33.8747 191.977 35.9013 191.977 38.504C191.977 40.1253 191.806 41.9813 191.465 44.072C191.124 46.1627 190.654 48.5947 190.057 51.368C189.246 55.0373 188.478 58.1733 187.753 60.776C187.028 63.336 186.196 65.448 185.257 67.112C184.361 68.776 183.166 70.0773 181.673 71.016C180.222 71.9547 178.324 72.616 175.977 73C173.63 73.3413 170.665 73.512 167.081 73.512ZM167.721 65.128C169.257 65.128 170.537 65.0853 171.561 65C172.585 64.872 173.438 64.5947 174.121 64.168C174.804 63.6987 175.38 62.9733 175.849 61.992C176.318 60.968 176.788 59.5813 177.257 57.832C177.726 56.04 178.26 53.7573 178.857 50.984C179.412 48.4667 179.817 46.3547 180.073 44.648C180.372 42.9413 180.521 41.576 180.521 40.552C180.521 39.3573 180.286 38.504 179.817 37.992C179.39 37.48 178.665 37.16 177.641 37.032C176.66 36.904 175.358 36.84 173.737 36.84C172.158 36.84 170.857 36.904 169.833 37.032C168.809 37.1173 167.956 37.3947 167.273 37.864C166.59 38.2907 166.014 39.016 165.545 40.04C165.076 41.0213 164.606 42.408 164.137 44.2C163.71 45.9493 163.22 48.2107 162.665 50.984C162.281 52.6907 161.94 54.2267 161.641 55.592C161.385 56.9147 161.193 58.0667 161.065 59.048C160.937 59.9867 160.873 60.7973 160.873 61.48C160.873 62.632 161.086 63.464 161.513 63.976C161.982 64.488 162.708 64.808 163.689 64.936C164.713 65.064 166.057 65.128 167.721 65.128ZM214.424 73.512C209.944 73.512 206.424 73.2133 203.864 72.616C201.304 72.0187 199.49 70.9947 198.424 69.544C197.357 68.0933 196.824 66.088 196.824 63.528C196.824 61.9493 197.016 60.0933 197.4 57.96C197.784 55.8267 198.253 53.3733 198.808 50.6C199.576 46.9733 200.28 43.88 200.92 41.32C201.56 38.7173 202.349 36.584 203.288 34.92C204.226 33.256 205.442 31.9547 206.936 31.016C208.472 30.0347 210.434 29.3733 212.824 29.032C215.256 28.648 218.264 28.456 221.848 28.456C226.328 28.456 229.826 28.7547 232.344 29.352C234.861 29.9493 236.653 30.9733 237.72 32.424C238.786 33.8747 239.32 35.9013 239.32 38.504C239.32 40.1253 239.149 41.9813 238.808 44.072C238.466 46.1627 237.997 48.5947 237.4 51.368C236.589 55.0373 235.821 58.1733 235.096 60.776C234.37 63.336 233.538 65.448 232.6 67.112C231.704 68.776 230.509 70.0773 229.016 71.016C227.565 71.9547 225.666 72.616 223.32 73C220.973 73.3413 218.008 73.512 214.424 73.512ZM215.064 65.128C216.6 65.128 217.88 65.0853 218.904 65C219.928 64.872 220.781 64.5947 221.464 64.168C222.146 63.6987 222.722 62.9733 223.192 61.992C223.661 60.968 224.13 59.5813 224.6 57.832C225.069 56.04 225.602 53.7573 226.2 50.984C226.754 48.4667 227.16 46.3547 227.416 44.648C227.714 42.9413 227.864 41.576 227.864 40.552C227.864 39.3573 227.629 38.504 227.16 37.992C226.733 37.48 226.008 37.16 224.984 37.032C224.002 36.904 222.701 36.84 221.08 36.84C219.501 36.84 218.2 36.904 217.176 37.032C216.152 37.1173 215.298 37.3947 214.616 37.864C213.933 38.2907 213.357 39.016 212.888 40.04C212.418 41.0213 211.949 42.408 211.48 44.2C211.053 45.9493 210.562 48.2107 210.008 50.984C209.624 52.6907 209.282 54.2267 208.984 55.592C208.728 56.9147 208.536 58.0667 208.408 59.048C208.28 59.9867 208.216 60.7973 208.216 61.48C208.216 62.632 208.429 63.464 208.856 63.976C209.325 64.488 210.05 64.808 211.032 64.936C212.056 65.064 213.4 65.128 215.064 65.128ZM259.846 73.512C258.011 73.512 256.049 73.4693 253.958 73.384C251.91 73.2987 249.905 73.1707 247.942 73C245.979 72.8293 244.251 72.6587 242.758 72.488L244.422 64.36C245.958 64.488 247.537 64.616 249.158 64.744C250.779 64.872 252.315 64.9787 253.766 65.064C255.259 65.1067 256.539 65.128 257.606 65.128C258.929 65.128 260.038 65.1067 260.934 65.064C261.873 65.0213 262.641 64.936 263.238 64.808C263.878 64.68 264.433 64.5093 264.902 64.296C265.201 64.0827 265.478 63.8053 265.734 63.464C265.99 63.1227 266.225 62.7387 266.438 62.312C266.651 61.8427 266.801 61.3733 266.886 60.904C267.014 60.392 267.099 59.9013 267.142 59.432C267.227 58.92 267.27 58.4933 267.27 58.152C267.27 57.5973 267.142 57.192 266.886 56.936C266.63 56.6373 266.118 56.4027 265.35 56.232C264.625 56.0613 263.515 55.848 262.022 55.592L253.126 54.248C250.865 53.9493 249.307 53.2027 248.454 52.008C247.601 50.7707 247.174 49.0853 247.174 46.952C247.174 46.0987 247.238 45.16 247.366 44.136C247.494 43.0693 247.686 41.96 247.942 40.808C248.582 38.12 249.435 35.9653 250.502 34.344C251.611 32.68 252.955 31.4427 254.534 30.632C256.155 29.7787 258.033 29.2027 260.166 28.904C262.299 28.6053 264.667 28.456 267.27 28.456C269.062 28.456 270.918 28.52 272.838 28.648C274.758 28.7333 276.55 28.8613 278.214 29.032C279.878 29.2027 281.265 29.416 282.374 29.672L280.71 37.608C279.558 37.48 278.235 37.352 276.742 37.224C275.291 37.096 273.777 37.0107 272.198 36.968C270.619 36.8827 269.147 36.84 267.782 36.84C266.63 36.84 265.649 36.8827 264.838 36.968C264.027 37.0107 263.323 37.1173 262.726 37.288C262.129 37.416 261.638 37.608 261.254 37.864C260.827 38.12 260.465 38.4613 260.166 38.888C259.867 39.272 259.611 39.72 259.398 40.232C259.227 40.744 259.099 41.256 259.014 41.768C258.971 42.28 258.95 42.792 258.95 43.304C258.95 44.072 259.227 44.584 259.782 44.84C260.337 45.0533 261.339 45.2667 262.79 45.48L271.174 46.696C272.582 46.9093 273.883 47.2293 275.078 47.656C276.273 48.0827 277.233 48.8293 277.958 49.896C278.683 50.92 279.046 52.4773 279.046 54.568C279.046 55.08 279.025 55.6347 278.982 56.232C278.939 56.8293 278.854 57.4693 278.726 58.152C278.641 58.8347 278.513 59.5387 278.342 60.264C277.659 63.336 276.763 65.768 275.654 67.56C274.587 69.3093 273.286 70.6107 271.75 71.464C270.214 72.3173 268.465 72.872 266.502 73.128C264.539 73.384 262.321 73.512 259.846 73.512ZM284.285 73L293.693 28.968H325.181L323.389 37.352H303.037L301.053 46.696H318.269L316.541 54.888H299.325L297.213 64.616H317.565L315.773 73H284.285ZM352.774 73L356.102 57.768L347.142 28.968H358.342L363.462 47.4H363.91L376.966 28.968H388.55L367.238 57.768L363.974 73H352.774ZM404.761 73.512C400.281 73.512 396.761 73.2133 394.201 72.616C391.641 72.0187 389.828 70.9947 388.761 69.544C387.694 68.0933 387.161 66.088 387.161 63.528C387.161 61.9493 387.353 60.0933 387.737 57.96C388.121 55.8267 388.59 53.3733 389.145 50.6C389.913 46.9733 390.617 43.88 391.257 41.32C391.897 38.7173 392.686 36.584 393.625 34.92C394.564 33.256 395.78 31.9547 397.273 31.016C398.809 30.0347 400.772 29.3733 403.161 29.032C405.593 28.648 408.601 28.456 412.185 28.456C416.665 28.456 420.164 28.7547 422.681 29.352C425.198 29.9493 426.99 30.9733 428.057 32.424C429.124 33.8747 429.657 35.9013 429.657 38.504C429.657 40.1253 429.486 41.9813 429.145 44.072C428.804 46.1627 428.334 48.5947 427.737 51.368C426.926 55.0373 426.158 58.1733 425.433 60.776C424.708 63.336 423.876 65.448 422.937 67.112C422.041 68.776 420.846 70.0773 419.353 71.016C417.902 71.9547 416.004 72.616 413.657 73C411.31 73.3413 408.345 73.512 404.761 73.512ZM405.401 65.128C406.937 65.128 408.217 65.0853 409.241 65C410.265 64.872 411.118 64.5947 411.801 64.168C412.484 63.6987 413.06 62.9733 413.529 61.992C413.998 60.968 414.468 59.5813 414.937 57.832C415.406 56.04 415.94 53.7573 416.537 50.984C417.092 48.4667 417.497 46.3547 417.753 44.648C418.052 42.9413 418.201 41.576 418.201 40.552C418.201 39.3573 417.966 38.504 417.497 37.992C417.07 37.48 416.345 37.16 415.321 37.032C414.34 36.904 413.038 36.84 411.417 36.84C409.838 36.84 408.537 36.904 407.513 37.032C406.489 37.1173 405.636 37.3947 404.953 37.864C404.27 38.2907 403.694 39.016 403.225 40.04C402.756 41.0213 402.286 42.408 401.817 44.2C401.39 45.9493 400.9 48.2107 400.345 50.984C399.961 52.6907 399.62 54.2267 399.321 55.592C399.065 56.9147 398.873 58.0667 398.745 59.048C398.617 59.9867 398.553 60.7973 398.553 61.48C398.553 62.632 398.766 63.464 399.193 63.976C399.662 64.488 400.388 64.808 401.369 64.936C402.393 65.064 403.737 65.128 405.401 65.128ZM451.592 73.512C447.496 73.512 444.274 73.2133 441.928 72.616C439.581 72.0187 437.896 70.9947 436.872 69.544C435.89 68.0933 435.4 66.152 435.4 63.72C435.4 62.3973 435.528 60.8613 435.784 59.112C436.082 57.32 436.445 55.336 436.872 53.16L441.992 28.968H453.192L447.56 55.4C447.261 56.8933 447.005 58.152 446.792 59.176C446.621 60.2 446.536 61.0533 446.536 61.736C446.536 62.632 446.728 63.3147 447.112 63.784C447.496 64.2533 448.114 64.5733 448.968 64.744C449.821 64.9147 450.973 65 452.424 65C454.088 65 455.389 64.8933 456.328 64.68C457.309 64.4667 458.077 64.04 458.632 63.4C459.229 62.7173 459.698 61.736 460.04 60.456C460.424 59.176 460.85 57.4907 461.32 55.4L466.951 28.968H478.088L472.968 53.16C472.285 56.4453 471.624 59.2827 470.984 61.672C470.386 64.0187 469.64 65.96 468.744 67.496C467.848 69.032 466.696 70.248 465.288 71.144C463.88 71.9973 462.066 72.616 459.848 73C457.672 73.3413 454.92 73.512 451.592 73.512ZM479.247 73L488.655 28.968H509.775C513.018 28.968 515.514 29.3093 517.264 29.992C519.013 30.6747 520.25 31.656 520.976 32.936C521.701 34.216 522.063 35.7947 522.063 37.672C522.063 38.2267 522.021 38.8453 521.936 39.528C521.893 40.168 521.808 40.8507 521.68 41.576C521.551 42.3013 521.402 43.048 521.232 43.816C520.89 45.352 520.485 46.76 520.015 48.04C519.589 49.32 519.077 50.4507 518.479 51.432C517.882 52.4133 517.114 53.288 516.175 54.056C515.237 54.7813 514.064 55.3787 512.656 55.848L515.728 73H504.399L502.223 57.192C501.925 57.192 501.605 57.192 501.264 57.192C500.922 57.192 500.559 57.192 500.175 57.192H493.839L490.447 73H479.247ZM495.503 49.256H502.479C503.93 49.256 505.082 49.1707 505.935 49C506.832 48.7867 507.536 48.4667 508.048 48.04C508.56 47.6133 508.965 47.016 509.264 46.248C509.562 45.4373 509.84 44.4347 510.096 43.24C510.223 42.5573 510.33 41.9387 510.416 41.384C510.501 40.8293 510.543 40.3387 510.543 39.912C510.543 39.272 510.394 38.76 510.096 38.376C509.797 37.9493 509.242 37.6507 508.431 37.48C507.664 37.2667 506.576 37.16 505.167 37.16H498.063L495.503 49.256ZM541.745 73L551.153 28.968H581.361L579.569 37.352H560.497L558.129 48.168H574.769L572.977 56.616H556.401L552.881 73H541.745ZM579.587 73L588.995 28.968H600.195L590.787 73H579.587ZM620.315 73.512C616.133 73.512 612.741 73.1493 610.139 72.424C607.579 71.6987 605.701 70.4827 604.507 68.776C603.355 67.0693 602.779 64.68 602.779 61.608C602.779 60.1573 602.907 58.5147 603.163 56.68C603.461 54.8453 603.845 52.8187 604.315 50.6C605.083 47.0587 605.872 44.0293 606.683 41.512C607.536 38.952 608.539 36.8187 609.691 35.112C610.885 33.4053 612.293 32.0827 613.915 31.144C615.536 30.1627 617.52 29.48 619.867 29.096C622.213 28.6693 625.008 28.456 628.251 28.456C629.872 28.456 631.621 28.52 633.499 28.648C635.419 28.776 637.317 28.9467 639.195 29.16C641.072 29.3733 642.757 29.608 644.251 29.864L642.587 37.736C641.264 37.5653 639.877 37.416 638.427 37.288C636.976 37.16 635.611 37.0533 634.331 36.968C633.093 36.8827 632.048 36.84 631.195 36.84C628.848 36.84 626.885 36.904 625.307 37.032C623.728 37.1173 622.427 37.3947 621.403 37.864C620.379 38.2907 619.504 39.016 618.779 40.04C618.096 41.0213 617.477 42.408 616.923 44.2C616.411 45.9493 615.877 48.2107 615.323 50.984C614.853 53.032 614.491 54.824 614.235 56.36C614.021 57.8533 613.915 59.1333 613.915 60.2C613.915 61.608 614.171 62.696 614.683 63.464C615.195 64.1893 616.005 64.68 617.115 64.936C618.267 65.192 619.76 65.32 621.595 65.32C622.064 65.32 622.619 65.32 623.259 65.32C623.941 65.2773 624.603 65.2347 625.243 65.192C625.925 65.1067 626.523 65.064 627.035 65.064L629.019 55.4H622.299L623.963 47.656H640.731L635.483 72.232C633.989 72.488 632.325 72.7227 630.491 72.936C628.699 73.1067 626.907 73.2347 625.115 73.32C623.365 73.448 621.765 73.512 620.315 73.512ZM645.648 73L655.056 28.968H666.256L662.544 46.248H677.328L681.04 28.968H692.176L682.768 73H671.632L675.344 55.528H660.56L656.848 73H645.648ZM701.816 73L709.368 37.8H696.952L698.872 28.968H734.84L732.92 37.8H720.504L713.016 73H701.816ZM732.332 73L741.74 28.968H773.228L771.436 37.352H751.084L749.1 46.696H766.316L764.588 54.888H747.372L745.26 64.616H765.612L763.82 73H732.332ZM772.738 73L782.146 28.968H803.266C806.508 28.968 809.004 29.3093 810.754 29.992C812.503 30.6747 813.74 31.656 814.466 32.936C815.191 34.216 815.554 35.7947 815.554 37.672C815.554 38.2267 815.511 38.8453 815.426 39.528C815.383 40.168 815.298 40.8507 815.17 41.576C815.042 42.3013 814.892 43.048 814.722 43.816C814.38 45.352 813.975 46.76 813.506 48.04C813.079 49.32 812.567 50.4507 811.97 51.432C811.372 52.4133 810.604 53.288 809.666 54.056C808.727 54.7813 807.554 55.3787 806.146 55.848L809.218 73H797.89L795.714 57.192C795.415 57.192 795.095 57.192 794.754 57.192C794.412 57.192 794.05 57.192 793.666 57.192H787.33L783.938 73H772.738ZM788.994 49.256H795.97C797.42 49.256 798.572 49.1707 799.426 49C800.322 48.7867 801.026 48.4667 801.538 48.04C802.05 47.6133 802.455 47.016 802.754 46.248C803.052 45.4373 803.33 44.4347 803.586 43.24C803.714 42.5573 803.82 41.9387 803.906 41.384C803.991 40.8293 804.034 40.3387 804.034 39.912C804.034 39.272 803.884 38.76 803.586 38.376C803.287 37.9493 802.732 37.6507 801.922 37.48C801.154 37.2667 800.066 37.16 798.658 37.16H791.554L788.994 49.256Z" fill="white"/>
<path fill-rule="evenodd" clip-rule="evenodd" d="M840.431 3H618L843.169 5.9758L871.973 37.2817L871.926 37.2817L866.142 48.5217L876 37.2817L875.977 37.2817L844.325 3H843H840.431Z" fill="#FD3A4C"/>
<path fill-rule="evenodd" clip-rule="evenodd" d="M35.5689 98L258 98L32.831 95.0242L4.02693 63.7182L4.0744 63.7182L9.85764 52.4783L2.99701e-06 63.7182L0.0227081 63.7182L31.6752 98L33 98L35.5689 98Z" fill="#FD3A4C"/>
</svg>
