<svg width="632" height="101" viewBox="0 0 632 101" fill="none" xmlns="http://www.w3.org/2000/svg">
<path fill-rule="evenodd" clip-rule="evenodd" d="M596.431 3H374L599.169 5.9758L627.973 37.2817H627.926L622.142 48.5217L632 37.2817H631.977L600.325 3H599H596.431Z" fill="#FD3A4C"/>
<path fill-rule="evenodd" clip-rule="evenodd" d="M35.5689 98L258 98L32.831 95.0242L4.02693 63.7182L4.0744 63.7182L9.85764 52.4783L2.99701e-06 63.7182L0.0227081 63.7182L31.6752 98L33 98L35.5689 98Z" fill="#FD3A4C"/>
<path d="M62.6313 73L72.0393 28.968H93.1593C96.4019 28.968 98.8979 29.3093 100.647 29.992C102.397 30.6747 103.634 31.656 104.359 32.936C105.085 34.216 105.447 35.7947 105.447 37.672C105.447 38.2267 105.405 38.8453 105.319 39.528C105.277 40.168 105.191 40.8507 105.063 41.576C104.935 42.3013 104.786 43.048 104.615 43.816C104.274 45.352 103.869 46.76 103.399 48.04C102.973 49.32 102.461 50.4507 101.863 51.432C101.266 52.4133 100.498 53.288 99.5593 54.056C98.6206 54.7813 97.4473 55.3787 96.0393 55.848L99.1113 73H87.7833L85.6073 57.192C85.3086 57.192 84.9886 57.192 84.6473 57.192C84.3059 57.192 83.9433 57.192 83.5593 57.192H77.2233L73.8313 73H62.6313ZM78.8873 49.256H85.8633C87.3139 49.256 88.4659 49.1707 89.3193 49C90.2153 48.7867 90.9193 48.4667 91.4313 48.04C91.9433 47.6133 92.3486 47.016 92.6473 46.248C92.9459 45.4373 93.2233 44.4347 93.4793 43.24C93.6073 42.5573 93.7139 41.9387 93.7993 41.384C93.8846 40.8293 93.9273 40.3387 93.9273 39.912C93.9273 39.272 93.7779 38.76 93.4793 38.376C93.1806 37.9493 92.6259 37.6507 91.8153 37.48C91.0473 37.2667 89.9593 37.16 88.5513 37.16H81.4473L78.8873 49.256ZM107.349 73L116.757 28.968H148.245L146.453 37.352H126.101L124.117 46.696H141.333L139.605 54.888H122.389L120.277 64.616H140.629L138.837 73H107.349ZM173.802 80.36L169.322 70.504H180.522L185.258 80.04L185.194 80.36H173.802ZM166.89 73.512C162.41 73.512 158.89 73.2133 156.33 72.616C153.77 72.0187 151.956 70.9947 150.89 69.544C149.823 68.0933 149.29 66.088 149.29 63.528C149.29 61.9493 149.482 60.0933 149.866 57.96C150.25 55.8267 150.719 53.3733 151.274 50.6C152.042 46.9733 152.746 43.88 153.386 41.32C154.026 38.7173 154.815 36.584 155.754 34.92C156.692 33.256 157.908 31.9547 159.402 31.016C160.938 30.0347 162.9 29.3733 165.29 29.032C167.722 28.648 170.73 28.456 174.314 28.456C178.794 28.456 182.292 28.7547 184.81 29.352C187.327 29.9493 189.119 30.9733 190.186 32.424C191.252 33.8747 191.786 35.9013 191.786 38.504C191.786 40.1253 191.615 41.9813 191.274 44.072C190.932 46.1627 190.463 48.5947 189.866 51.368C189.055 55.0373 188.287 58.1733 187.562 60.776C186.836 63.336 186.004 65.448 185.066 67.112C184.17 68.776 182.975 70.0773 181.482 71.016C180.031 71.9547 178.132 72.616 175.786 73C173.439 73.3413 170.474 73.512 166.89 73.512ZM167.53 65.128C169.066 65.128 170.346 65.0853 171.37 65C172.394 64.872 173.247 64.5947 173.93 64.168C174.612 63.6987 175.188 62.9733 175.658 61.992C176.127 60.968 176.596 59.5813 177.066 57.832C177.535 56.04 178.068 53.7573 178.666 50.984C179.22 48.4667 179.626 46.3547 179.882 44.648C180.18 42.9413 180.33 41.576 180.33 40.552C180.33 39.3573 180.095 38.504 179.626 37.992C179.199 37.48 178.474 37.16 177.45 37.032C176.468 36.904 175.167 36.84 173.546 36.84C171.967 36.84 170.666 36.904 169.642 37.032C168.618 37.1173 167.764 37.3947 167.082 37.864C166.399 38.2907 165.823 39.016 165.354 40.04C164.884 41.0213 164.415 42.408 163.946 44.2C163.519 45.9493 163.028 48.2107 162.474 50.984C162.09 52.6907 161.748 54.2267 161.45 55.592C161.194 56.9147 161.002 58.0667 160.874 59.048C160.746 59.9867 160.682 60.7973 160.682 61.48C160.682 62.632 160.895 63.464 161.322 63.976C161.791 64.488 162.516 64.808 163.498 64.936C164.522 65.064 165.866 65.128 167.53 65.128ZM213.72 73.512C209.624 73.512 206.403 73.2133 204.056 72.616C201.71 72.0187 200.024 70.9947 199 69.544C198.019 68.0933 197.528 66.152 197.528 63.72C197.528 62.3973 197.656 60.8613 197.912 59.112C198.211 57.32 198.574 55.336 199 53.16L204.12 28.968H215.32L209.688 55.4C209.39 56.8933 209.134 58.152 208.92 59.176C208.75 60.2 208.664 61.0533 208.664 61.736C208.664 62.632 208.856 63.3147 209.24 63.784C209.624 64.2533 210.243 64.5733 211.096 64.744C211.95 64.9147 213.102 65 214.552 65C216.216 65 217.518 64.8933 218.456 64.68C219.438 64.4667 220.206 64.04 220.76 63.4C221.358 62.7173 221.827 61.736 222.168 60.456C222.552 59.176 222.979 57.4907 223.448 55.4L229.08 28.968H240.216L235.096 53.16C234.414 56.4453 233.752 59.2827 233.112 61.672C232.515 64.0187 231.768 65.96 230.872 67.496C229.976 69.032 228.824 70.248 227.416 71.144C226.008 71.9973 224.195 72.616 221.976 73C219.8 73.3413 217.048 73.512 213.72 73.512ZM241.376 73L250.784 28.968H282.272L280.48 37.352H260.128L258.144 46.696H275.36L273.632 54.888H256.416L254.304 64.616H274.656L272.864 73H241.376ZM298.997 73.512C297.163 73.512 295.2 73.4693 293.109 73.384C291.061 73.2987 289.056 73.1707 287.093 73C285.131 72.8293 283.403 72.6587 281.909 72.488L283.573 64.36C285.109 64.488 286.688 64.616 288.309 64.744C289.931 64.872 291.467 64.9787 292.917 65.064C294.411 65.1067 295.691 65.128 296.757 65.128C298.08 65.128 299.189 65.1067 300.085 65.064C301.024 65.0213 301.792 64.936 302.389 64.808C303.029 64.68 303.584 64.5093 304.053 64.296C304.352 64.0827 304.629 63.8053 304.885 63.464C305.141 63.1227 305.376 62.7387 305.589 62.312C305.803 61.8427 305.952 61.3733 306.037 60.904C306.165 60.392 306.251 59.9013 306.293 59.432C306.379 58.92 306.421 58.4933 306.421 58.152C306.421 57.5973 306.293 57.192 306.037 56.936C305.781 56.6373 305.269 56.4027 304.501 56.232C303.776 56.0613 302.667 55.848 301.173 55.592L292.277 54.248C290.016 53.9493 288.459 53.2027 287.605 52.008C286.752 50.7707 286.325 49.0853 286.325 46.952C286.325 46.0987 286.389 45.16 286.517 44.136C286.645 43.0693 286.837 41.96 287.093 40.808C287.733 38.12 288.587 35.9653 289.653 34.344C290.763 32.68 292.107 31.4427 293.685 30.632C295.307 29.7787 297.184 29.2027 299.317 28.904C301.451 28.6053 303.819 28.456 306.421 28.456C308.213 28.456 310.069 28.52 311.989 28.648C313.909 28.7333 315.701 28.8613 317.365 29.032C319.029 29.2027 320.416 29.416 321.525 29.672L319.861 37.608C318.709 37.48 317.387 37.352 315.893 37.224C314.443 37.096 312.928 37.0107 311.349 36.968C309.771 36.8827 308.299 36.84 306.933 36.84C305.781 36.84 304.8 36.8827 303.989 36.968C303.179 37.0107 302.475 37.1173 301.877 37.288C301.28 37.416 300.789 37.608 300.405 37.864C299.979 38.12 299.616 38.4613 299.317 38.888C299.019 39.272 298.763 39.72 298.549 40.232C298.379 40.744 298.251 41.256 298.165 41.768C298.123 42.28 298.101 42.792 298.101 43.304C298.101 44.072 298.379 44.584 298.933 44.84C299.488 45.0533 300.491 45.2667 301.941 45.48L310.325 46.696C311.733 46.9093 313.035 47.2293 314.229 47.656C315.424 48.0827 316.384 48.8293 317.109 49.896C317.835 50.92 318.197 52.4773 318.197 54.568C318.197 55.08 318.176 55.6347 318.133 56.232C318.091 56.8293 318.005 57.4693 317.877 58.152C317.792 58.8347 317.664 59.5387 317.493 60.264C316.811 63.336 315.915 65.768 314.805 67.56C313.739 69.3093 312.437 70.6107 310.901 71.464C309.365 72.3173 307.616 72.872 305.653 73.128C303.691 73.384 301.472 73.512 298.997 73.512ZM332.012 73L339.564 37.8H327.148L329.068 28.968H365.036L363.116 37.8H350.7L343.212 73H332.012ZM375.339 73L399.147 28.968H414.315L419.371 73H408.491L407.467 64.296H391.275L386.539 73H375.339ZM395.179 56.104H406.891L405.035 38.568H404.587L395.179 56.104ZM443.619 73L453.027 28.968H464.227L460.451 46.504H464.227L479.843 28.968H492.259L472.355 50.728L483.043 73H471.075L462.435 54.696H458.723L454.819 73H443.619ZM489.649 73L499.057 28.968H530.545L528.753 37.352H508.401L506.417 46.696H523.633L521.905 54.888H504.689L502.577 64.616H522.929L521.137 73H489.649ZM540.358 73L543.686 57.768L534.726 28.968H545.926L551.046 47.4H551.494L564.55 28.968H576.134L554.822 57.768L551.558 73H540.358Z" fill="white"/>
</svg>
